HIERARCHY
ROOT Pelvis
{
	OFFSET 0.000000 0.000000 0.000000
	CHANNELS 6 Xposition Yposition Zposition Xrotation Yrotation Zrotation
	JOINT LeftUpLeg_virtual
	{
		OFFSET 0.000000 0.000000 0.000000
		CHANNELS 3 Xrotation Yrotation Zrotation
		JOINT LeftUpLeg
		{
			OFFSET 8.479700 -4.795502 -0.379100
			CHANNELS 3 Xrotation Yrotation Zrotation
			JOINT LeftLeg
			{
				OFFSET 0.024144 -32.555107 0.112900
				CHANNELS 3 Xrotation Yrotation Zrotation
				JOINT LeftFoot
				{
					OFFSET -0.024144 -32.638630 -3.012600
					CHANNELS 3 Xrotation Yrotation Zrotation
					JOINT LeftToeBase
					{
						OFFSET 0.970200 -13.225400 11.864200
						CHANNELS 3 Xrotation Yrotation Zrotation
						End Site
						{
							OFFSET 0 0 0
						}
					}
				}
			}
		}
	}
	JOINT RightUpLeg_virtual
	{
		OFFSET 0.000000 0.000000 0.000000
		CHANNELS 3 Xrotation Yrotation Zrotation
		JOINT RightUpLeg
		{
			OFFSET -8.479700 -4.795502 -0.379100
			CHANNELS 3 Xrotation Yrotation Zrotation
			JOINT RightLeg
			{
				OFFSET -0.023144 -32.555092 0.112900
				CHANNELS 3 Xrotation Yrotation Zrotation
				JOINT RightFoot
				{
					OFFSET 0.023144 -32.638641 -3.012700
					CHANNELS 3 Xrotation Yrotation Zrotation
					JOINT RightToeBase
					{
						OFFSET -0.970200 -13.225400 11.864200
						CHANNELS 3 Xrotation Yrotation Zrotation
						End Site
						{
							OFFSET 0 0 0
						}
					}
				}
			}
		}
	}
	JOINT Hips_virtual
	{
		OFFSET 0.000000 0.000000 0.000000
		CHANNELS 3 Xrotation Yrotation Zrotation
		JOINT Hips
		{
			OFFSET -0.000000 -0.000000 -0.000000
			CHANNELS 3 Xrotation Yrotation Zrotation
			JOINT Spine
			{
				OFFSET 0.000000 7.722000 1.166200
				CHANNELS 3 Xrotation Yrotation Zrotation
				JOINT Spine1
				{
					OFFSET 0.000000 12.024101 0.248800
					CHANNELS 3 Xrotation Yrotation Zrotation
					JOINT Spine2
					{
						OFFSET 0.000000 11.502998 -0.491200
						CHANNELS 3 Xrotation Yrotation Zrotation
						JOINT Neck_virtual
						{
							OFFSET 0.000000 0.000000 0.000000
							CHANNELS 3 Xrotation Yrotation Zrotation
							JOINT Neck
							{
								OFFSET 0.000000 18.430702 -3.123100
								CHANNELS 3 Xrotation Yrotation Zrotation
								JOINT Head
								{
									OFFSET 0.000000 9.051102 1.034000
									CHANNELS 3 Xrotation Yrotation Zrotation
									End Site
									{
										OFFSET 0 0 0
									}
								}
							}
						}
						JOINT LeftShoulder_virtual
						{
							OFFSET 0.000000 0.000000 0.000000
							CHANNELS 3 Xrotation Yrotation Zrotation
							JOINT LeftShoulder
							{
								OFFSET 6.197800 13.665199 -4.064700
								CHANNELS 3 Xrotation Yrotation Zrotation
								JOINT LeftArm
								{
									OFFSET 7.778100 -0.187103 -1.709300
									CHANNELS 3 Xrotation Yrotation Zrotation
									JOINT LeftForeArm
									{
										OFFSET 22.049376 0.000000 0.000000
										CHANNELS 3 Xrotation Yrotation Zrotation
										JOINT LeftHand
										{
											OFFSET 23.009392 0.000000 0.000000
											CHANNELS 3 Xrotation Yrotation Zrotation
											End Site
											{
												OFFSET 0 0 0
											}
										}
									}
								}
							}
						}
						JOINT RightShoulder_virtual
						{
							OFFSET 0.000000 0.000000 0.000000
							CHANNELS 3 Xrotation Yrotation Zrotation
							JOINT RightShoulder
							{
								OFFSET -6.197800 13.665199 -4.064700
								CHANNELS 3 Xrotation Yrotation Zrotation
								JOINT RightArm
								{
									OFFSET -7.778100 -0.187103 -1.709300
									CHANNELS 3 Xrotation Yrotation Zrotation
									JOINT RightForeArm
									{
										OFFSET -22.049376 0.000000 0.000000
										CHANNELS 3 Xrotation Yrotation Zrotation
										JOINT RightHand
										{
											OFFSET -23.009392 0.000000 0.000000
											CHANNELS 3 Xrotation Yrotation Zrotation
											End Site
											{
												OFFSET 0 0 0
											}
										}
									}
								}
							}
						}
					}
				}
			}
		}
	}
}
MOTION
Frames: 5
Frame Time: 0.03333333
4.822269 13.013454 140.747223 0.000000 0.000000 0.000000 -98.552547 -0.108744 -0.225917 -40.534755 -27.553340 31.401108 98.678468 -5.442845 6.640858 6.769897 -1.495975 -13.174649 0.000000 0.000000 0.000000 -98.552547 -0.108744 -0.225917 -44.852708 3.657198 -20.674021 95.279848 6.769732 -4.433124 -1.138947 0.560264 11.282348 0.000000 0.000000 0.000000 -98.552547 -0.108744 -0.225917 0.000000 0.000000 0.000000 3.643255 -0.706835 0.702451 0.996826 -0.409160 0.102272 0.000000 0.000000 0.000000 1.002247 -0.404640 0.123115 11.869401 -0.692219 0.070575 0.000000 0.000000 0.000000 1.002247 -0.404640 0.123115 -0.224979 -17.471188 -6.131980 63.391464 -14.457670 -43.758017 0.000006 -33.190369 -0.000002 0.000000 0.000000 0.000000 1.002247 -0.404640 0.123115 -2.454914 7.297287 14.160513 82.050625 23.802210 19.508779 -0.000000 33.367390 -0.000001 0.000000 0.000000 0.000000 
4.876712 12.950314 140.682861 0.000000 0.000000 0.000000 -98.539146 0.064605 -0.169765 -40.879382 -27.569510 31.148053 98.644850 -5.126799 6.678643 6.682760 -1.482635 -13.494708 0.000000 0.000000 0.000000 -98.539146 0.064605 -0.169765 -44.325769 3.060801 -20.872254 94.311409 6.335455 -4.488939 -2.224662 0.558403 12.319910 0.000000 0.000000 0.000000 -98.539146 0.064605 -0.169765 0.000001 0.000000 0.000000 3.848681 -0.697764 0.691672 1.031025 -0.407030 0.091107 0.000000 0.000000 0.000000 1.036536 -0.402723 0.114033 12.329898 -0.703528 0.096694 0.000000 0.000000 0.000000 1.036536 -0.402723 0.114033 -0.240339 -17.364788 -6.480457 63.299113 -14.213855 -43.254102 -0.000002 -33.210822 0.000002 0.000000 0.000000 0.000000 1.036536 -0.402723 0.114033 -2.482200 7.018729 14.624711 81.478529 23.186636 19.645593 -0.000007 33.245901 0.000005 0.000000 0.000000 0.000000 
4.925253 12.883492 140.612427 0.000000 0.000000 0.000000 -98.528546 0.224935 -0.094512 -41.241461 -27.546826 30.895541 98.616949 -4.832096 6.699190 6.626842 -1.465366 -13.767673 0.000000 0.000000 0.000000 -98.528546 0.224935 -0.094512 -43.734709 2.421058 -21.046938 93.235074 5.865810 -4.550755 -3.294906 0.634324 13.377656 0.000000 0.000000 0.000000 -98.528546 0.224935 -0.094512 0.000000 0.000000 0.000000 4.143241 -0.689545 0.659196 1.137655 -0.405697 0.070828 0.000000 0.000000 0.000000 1.143166 -0.402001 0.095220 12.729190 -0.700866 0.120165 0.000000 0.000000 0.000000 1.143166 -0.402001 0.095220 -0.154410 -16.831191 -6.895303 63.080547 -13.982387 -42.252862 0.000006 -33.293778 0.000009 0.000000 0.000000 0.000000 1.143166 -0.402001 0.095220 -2.516762 6.886644 15.038910 80.629140 22.829690 19.944864 -0.000001 32.748329 -0.000001 0.000000 0.000000 0.000000 
4.966283 12.812492 140.537781 0.000000 0.000000 0.000000 -98.530424 0.366662 -0.004255 -41.608037 -27.481220 30.652499 98.597414 -4.556680 6.700702 6.598475 -1.444842 -13.981109 0.000000 0.000000 0.000000 -98.530424 0.366662 -0.004255 -43.064585 1.736109 -21.221662 92.047632 5.507970 -4.591036 -4.375420 0.659303 14.527860 0.000000 0.000000 0.000000 -98.530424 0.366662 -0.004255 0.000000 0.000000 0.000000 4.410732 -0.694177 0.610070 1.255843 -0.410343 0.044730 0.000000 0.000000 0.000000 1.261415 -0.407324 0.070598 13.050124 -0.685838 0.139931 0.000000 0.000000 0.000000 1.261415 -0.407324 0.070598 -0.073210 -16.364816 -7.317481 62.845841 -13.725586 -41.337234 0.000002 -33.322157 0.000007 0.000000 0.000000 0.000000 1.261415 -0.407324 0.070598 -2.562780 6.924872 15.366534 79.650777 22.623111 20.419423 0.000001 32.127571 0.000000 0.000000 0.000000 0.000000 
5.000751 12.737331 140.461426 0.000000 0.000000 0.000000 -98.545853 0.492162 0.095555 -41.980006 -27.373388 30.414754 98.587729 -4.288977 6.686826 6.598796 -1.423764 -14.129644 0.000000 0.000000 0.000000 -98.545853 0.492162 0.095555 -42.301834 0.995545 -21.414036 90.727650 5.221945 -4.596848 -5.487840 0.664553 15.801520 0.000000 0.000000 0.000000 -98.545853 0.492162 0.095555 0.000001 0.000000 0.000000 4.653619 -0.721152 0.553700 1.387990 -0.425766 0.016742 0.000000 0.000000 0.000000 1.393694 -0.423227 0.044398 13.294722 -0.660562 0.148634 0.000000 0.000000 0.000000 1.393694 -0.423227 0.044398 0.009498 -15.933923 -7.745199 62.583200 -13.462227 -40.495338 -0.000004 -33.289294 0.000002 0.000000 0.000000 0.000000 1.393694 -0.423227 0.044398 -2.620613 7.110671 15.598115 78.640974 22.506877 21.021512 -0.000004 31.831919 0.000009 0.000000 0.000000 0.000000 
